<?xml version="1.0" encoding="utf-8"?>
<!-- Generator: Adobe Illustrator 27.8.1, SVG Export Plug-In . SVG Version: 6.00 Build 0)  -->
<svg version="1.1" id="Calque_1" xmlns="http://www.w3.org/2000/svg" xmlns:xlink="http://www.w3.org/1999/xlink" x="0px" y="0px"
	 viewBox="0 0 512 512" style="enable-background:new 0 0 512 512;" xml:space="preserve">
<style type="text/css">
	.st0{fill:#EF7A45;}
</style>
<g>
	<path class="st0" d="M21.3,21.3C9.6,21.3,0,30.9,0,42.7S9.6,64,21.3,64h38c6.4,0,12,4.1,14,10.1l70.3,211.1
		c3.1,9.4,3.5,19.5,1.1,29.1l-5.8,23.2c-8.5,34,18,67.9,53,67.9h256c11.8,0,21.3-9.6,21.3-21.3s-9.6-21.3-21.3-21.3H192
		c-8.3,0-13.7-6.8-11.6-14.9l4.4-17.5c1.5-6.1,7-10.3,13.2-10.3h228.7c9.2,0,17.4-5.9,20.3-14.6l56.9-170.7
		c3.7-11.2-2.3-23.3-13.5-27c-2.2-0.7-4.5-1.1-6.7-1.1H139.8c-6.4,0-12-4.1-14-10.1l-20.2-60.6c-2.9-8.7-11.1-14.6-20.2-14.6H21.3z
		 M170.7,426.7c-23.6,0-42.7,19.1-42.7,42.7c0,23.6,19.1,42.7,42.7,42.7s42.7-19.1,42.7-42.7C213.3,445.8,194.2,426.7,170.7,426.7z
		 M426.7,426.7c-23.6,0-42.7,19.1-42.7,42.7c0,23.6,19.1,42.7,42.7,42.7c23.6,0,42.7-19.1,42.7-42.7
		C469.3,445.8,450.2,426.7,426.7,426.7z"/>
</g>
</svg>
