<?xml version="1.0" encoding="utf-8"?>
<!-- Generator: Adobe Illustrator 27.8.1, SVG Export Plug-In . SVG Version: 6.00 Build 0)  -->
<svg version="1.1" id="Calque_1" xmlns="http://www.w3.org/2000/svg" xmlns:xlink="http://www.w3.org/1999/xlink" x="0px" y="0px"
	 viewBox="0 0 2642.2 512" style="enable-background:new 0 0 2642.2 512;" xml:space="preserve">
<style type="text/css">
	.st0{fill:#EF7A45;}
</style>
<g>
	<path class="st0" d="M490.4,107.8c-2.2-0.7-4.5-1.1-6.7-1.1H139.8c-6.4,0-12-4.1-14-10.1L105.6,36c-2.9-8.7-11.1-14.6-20.2-14.6
		H21.3v-0.1C9.6,21.3,0,30.9,0,42.7S9.6,64,21.3,64h38c6.4,0,12,4.1,14,10.1l70.3,211.1c3.1,9.4,3.5,19.5,1.1,29.1l-5.8,23.2
		c-8.5,34,18,67.9,53,67.9h256c11.8,0,21.3-9.6,21.3-21.3c0-11.7-9.6-21.3-21.3-21.3H192c-8.3,0-13.7-6.8-11.6-14.9l4.4-17.5
		c1.5-6.1,7-10.3,13.2-10.3h228.7c9.2,0,17.4-5.9,20.3-14.6l56.9-170.7C507.6,123.6,501.6,111.5,490.4,107.8z"/>
	<path class="st0" d="M170.7,426.7c-23.6,0-42.7,19.1-42.7,42.7s19.1,42.7,42.7,42.7s42.7-19.1,42.7-42.7
		C213.3,445.8,194.2,426.7,170.7,426.7z"/>
	<path class="st0" d="M426.7,426.7c-23.6,0-42.7,19.1-42.7,42.7s19.1,42.7,42.7,42.7s42.7-19.1,42.7-42.7
		C469.3,445.8,450.2,426.7,426.7,426.7z"/>
	<path class="st0" d="M699.6,133.4l-88.3,246.9h42.2l17.7-50.4h103.2l17.8,50.4h42.5l-88.3-246.9L699.6,133.4L699.6,133.4z
		 M682.7,296.9l40.4-114.5l40.1,114.5H682.7z"/>
	<path class="st0" d="M1019.6,212.1c-7.3-9.2-17.1-16.6-29.6-22.2s-25.1-8.4-37.8-8.4c-17.4,0-33,4.3-47,12.6
		c-14,8.4-25.2,20.1-33.3,35.3c-8.1,15.1-12.2,32.5-12.2,52c0,19.7,4.1,37.2,12.2,52.7c8.1,15.5,19.3,27.5,33.3,36.2
		c14,8.7,29.6,13,46.6,13c15.1,0,28.6-3.1,40.3-9.2c11.8-6.1,20.9-13.9,27.5-23.4v29.5h40.8V117.8h-40.8V212.1z M1011.2,317.6
		c-5.6,10-12.9,17.6-21.9,22.8c-8.9,5.3-18.6,7.8-29,7.8c-10.2,0-19.8-2.6-28.9-7.9s-16.4-13.1-22-23.3s-8.4-22-8.4-35.5
		s2.8-25.1,8.4-34.9c5.6-9.9,12.9-17.4,21.9-22.4c8.9-5,18.6-7.6,29-7.6c10.4,0,20,2.6,29,7.8c9,5.3,16.3,12.8,21.9,22.7
		c5.6,10,8.4,21.6,8.4,35.1C1019.6,295.7,1016.8,307.5,1011.2,317.6z"/>
	<path class="st0" d="M1260,212.1c-7.3-9.2-17.1-16.6-29.6-22.2s-25.1-8.4-37.8-8.4c-17.4,0-33,4.3-47,12.6
		c-14,8.4-25.2,20.1-33.3,35.3c-8.1,15.1-12.2,32.5-12.2,52c0,19.7,4.1,37.2,12.2,52.7c8.1,15.5,19.3,27.5,33.3,36.2
		c14,8.7,29.6,13,46.6,13c15.1,0,28.6-3.1,40.3-9.2c11.8-6.1,20.9-13.9,27.5-23.4v29.5h40.8V117.8H1260L1260,212.1L1260,212.1z
		 M1251.7,317.6c-5.6,10-12.9,17.6-21.9,22.8c-8.9,5.3-18.6,7.8-29,7.8c-10.2,0-19.8-2.6-28.9-7.9s-16.4-13.1-22-23.3
		s-8.4-22-8.4-35.5s2.8-25.1,8.4-34.9c5.6-9.9,12.9-17.4,21.9-22.4c8.9-5,18.6-7.6,29-7.6s20,2.6,29,7.8c9,5.3,16.3,12.8,21.9,22.7
		c5.6,10,8.4,21.6,8.4,35.1C1260,295.7,1257.2,307.5,1251.7,317.6z"/>
	<path class="st0" d="M1493.4,136.3h-40.8v48.5h-23v33h23V326c0,19.1,4.8,33,14.6,41.5c9.8,8.5,23.7,12.8,41.9,12.8h31.9v-33.6
		h-24.9c-8.3,0-14.1-1.6-17.6-4.8c-3.4-3.1-5.1-8.5-5.1-15.8V217.8h47.6v-33h-47.6V136.3z"/>
	<path class="st0" d="M1715.2,194c-15.1-8.3-32-12.4-50.7-12.4c-18.6,0-35.6,4.2-50.7,12.4c-15.1,8.3-27,20.1-35.8,35.5
		c-8.7,15.3-13.1,33-13.1,52.8c0,20.1,4.3,37.8,12.8,53c8.6,15.2,20.3,27.1,35.1,35.5c14.9,8.4,31.6,12.5,49.7,12.6
		c18.6,0,35.7-4.3,51.2-12.6c15.5-8.5,27.8-20.4,36.8-35.7c9-15.3,13.5-33,13.5-52.8s-4.3-37.5-13.1-52.8
		C1742.3,214.2,1730.3,202.3,1715.2,194z M1714.3,318.4c-5.7,10-13.1,17.5-22.2,22.4c-9.1,5-18.9,7.5-29.3,7.4
		c-16.3,0-29.9-5.8-40.6-17.3c-10.8-11.5-16.2-27.8-16.2-48.8c0-14.1,2.6-26.1,7.8-36s12.2-17.3,21.1-22.2c8.9-5,18.5-7.5,28.9-7.5
		s20,2.6,29,7.5c9,4.9,16.2,12.3,21.6,22.2c5.5,9.9,8.1,21.9,8.1,36C1722.8,296.5,1720,308.5,1714.3,318.4z"/>
	<path class="st0" d="M1965.6,177c12.8-7.4,27.3-11,43.6-11c14.9,0,28,3.2,39.3,9.5c11.4,6.3,20.1,16.1,26.6,29h48.5
		c-9.2-23.6-24-41.9-44.5-54.8c-20.5-12.9-43.8-19.3-70.1-19.3c-22.9,0-44,5.5-63.3,16.2c-19.3,10.8-34.5,25.7-45.8,44.9
		c-11.3,19.1-16.9,40.7-16.7,64.9c0,24.1,5.6,45.8,16.8,64.9c11.1,19.2,26.4,34.2,45.5,44.9c19.1,10.8,40.3,16.2,63.4,16.2
		c26.3,0,49.6-6.4,70.1-19.2c20.4-12.8,35.3-31,44.5-54.6h-48.5c-6.3,13-15.2,22.7-26.6,29c-11.4,6.3-24.4,9.5-39.3,9.5
		c-16.3,0-30.9-3.6-43.6-11.1c-12.8-7.4-22.8-18-30-31.7c-7.2-13.7-10.8-29.7-10.8-47.9s3.6-34.2,10.8-47.9
		C1942.9,194.9,1952.9,184.3,1965.6,177z"/>
	<path class="st0" d="M2317.3,213.1c-7-9-16.1-16.5-27.5-22.5c-11.5-6-25-9-40.3-9c-17,0-32.6,4.3-46.6,12.6
		c-14,8.4-25.2,20.1-33.3,35.3c-8.1,15.1-12.2,32.5-12,52c0,19.7,4.1,37.2,12.2,52.7c8.1,15.5,19.2,27.5,33.1,36.2
		c13.9,8.7,29.3,13,46.1,13c15.1,0,28.6-3.1,40.4-9.2c11.8-6.1,21.1-13.8,28-23v29h40.8V184.7h-40.8L2317.3,213.1L2317.3,213.1z
		 M2308.9,317.6c-5.6,10-12.9,17.6-21.9,22.8c-8.9,5.3-18.6,7.8-29,7.8c-10.2,0-19.8-2.6-28.9-7.9c-9.1-5.4-16.4-13.1-22-23.3
		s-8.4-22-8.4-35.5s2.8-25.1,8.4-34.9c5.6-9.9,12.9-17.4,21.9-22.4c8.9-5,18.6-7.6,29-7.6c10.4,0,20,2.6,29,7.8
		c9,5.3,16.3,12.8,21.9,22.7c5.6,10,8.4,21.6,8.4,35.1C2317.3,295.7,2314.5,307.5,2308.9,317.6z"/>
	<path class="st0" d="M2451.6,213.2v-28.4h-40.4v195.5h40.4V277.5c0-19.9,4.1-33.9,12.2-41.9s20.1-12.1,36-12.1h10.3v-41.9
		c-13.5,0-25.1,2.8-34.9,8.4C2465.5,195.5,2457.5,203.2,2451.6,213.2z"/>
	<path class="st0" d="M2617.3,346.6c-8.3,0-14.1-1.6-17.6-4.8c-3.4-3.1-5.1-8.5-5.1-15.8V217.8h47.6v-33h-47.6v-48.5h-40.8v48.5h-23
		v33h23V326c0,19.1,4.8,33,14.6,41.5c9.8,8.5,23.7,12.8,41.9,12.8h31.9v-33.6H2617.3z"/>
</g>
</svg>
